<?xml version="1.0" encoding="UTF-8" standalone="no"?><svg xmlns="http://www.w3.org/2000/svg" xmlns:xlink="http://www.w3.org/1999/xlink" contentScriptType="application/ecmascript" contentStyleType="text/css" height="90px" preserveAspectRatio="none" style="width:205px;height:90px;" version="1.1" viewBox="0 0 205 90" width="205px" zoomAndPan="magnify"><defs><filter height="300%" id="f1uf8fkgd8wf73" width="300%" x="-1" y="-1"><feGaussianBlur result="blurOut" stdDeviation="2.0"/><feColorMatrix in="blurOut" result="blurOut2" type="matrix" values="0 0 0 0 0 0 0 0 0 0 0 0 0 0 0 0 0 0 .4 0"/><feOffset dx="4.0" dy="4.0" in="blurOut2" result="blurOut3"/><feBlend in="SourceGraphic" in2="blurOut3" mode="normal"/></filter></defs><g><path d="M17,23 C17,20 19,18 22,18 C25,18 27,20 27,23 C27,20 29,18 32,18 C35,18 37,20 37,23 C37,20 39,18 42,18 C45,18 47,20 47,23 C47,20 49,18 52,18 C55,18 57,20 57,23 C57,20 59,18 62,18 C65,18 67,20 67,23 C67,20 69,18 72,18 C75,18 77,20 77,23 C77,20 79,18 82,18 C85,18 87,20 87,23 C87,20 89,18 92,18 C95,18 97,20 97,23 C97,20 99,18 102,18 C105,18 107,20 107,23 C107,20 109,18 112,18 C115,18 117,20 117,23 C117,20 119,18 122,18 C125,18 127,20 127,23 C127,20 129,18 132,18 C135,18 137,20 137,23 C137,20 139,18 142,18 C145,18 147,20 147,23 C147,20 149,18 152,18 C155,18 157,20 157,23 C157,20 159,18 162,18 C165,18 167,20 167,23 C167,20 169,18 172,18 C175,18 177,20 177,23 C177,20 179,18 182,18 C185,18 187,20 187,23 C190,23 192,25 192,28 C192,31 190,33 187,33 C190,33 192,35 192,38 C192,41 190,43 187,43 C190,43 192,45 192,48 C192,51 190,53 187,53 C190,53 192,55 192,58 C192,61 190,63 187,63 C190,63 192,65 192,68 C192,71 190,73 187,73 C187,76 184,78 182,78 C179,78 177,76 177,73 C177,76 174,78 172,78 C169,78 167,76 167,73 C167,76 164,78 162,78 C159,78 157,76 157,73 C157,76 154,78 152,78 C149,78 147,76 147,73 C147,76 144,78 142,78 C139,78 137,76 137,73 C137,76 134,78 132,78 C129,78 127,76 127,73 C127,76 124,78 122,78 C119,78 117,76 117,73 C117,76 114,78 112,78 C109,78 107,76 107,73 C107,76 104,78 102,78 C99,78 97,76 97,73 C97,76 94,78 92,78 C89,78 87,76 87,73 C87,76 84,78 82,78 C79,78 77,76 77,73 C77,76 74,78 72,78 C69,78 67,76 67,73 C67,76 64,78 62,78 C59,78 57,76 57,73 C57,76 54,78 52,78 C49,78 47,76 47,73 C47,76 44,78 42,78 C39,78 37,76 37,73 C37,76 34,78 32,78 C29,78 27,76 27,73 C27,76 24,78 22,78 C19,78 17,76 17,73 C14,73 12,71 12,68 C12,65 14,63 17,63 C14,63 12,61 12,58 C12,55 14,53 17,53 C14,53 12,51 12,48 C12,45 14,43 17,43 C14,43 12,41 12,38 C12,35 14,33 17,33 C14,33 12,31 12,28 C12,25 14,23 17,23 " fill="#FFFFFF" filter="url(#f1uf8fkgd8wf73)" style="stroke: #000000; stroke-width: 1.5;"/><polygon fill="#FFFFFF" filter="url(#f1uf8fkgd8wf73)" points="112.5,24,169.5,24,176.5,46.4883,183.5,46.4883,183.5,76.9766,112.5,76.9766,112.5,24" style="stroke: #000000; stroke-width: 1.5;"/><line style="stroke: #000000; stroke-width: 1.5;" x1="112.5" x2="176.5" y1="46.4883" y2="46.4883"/><text fill="#000000" font-family="sans-serif" font-size="14" font-weight="bold" lengthAdjust="spacingAndGlyphs" textLength="51" x="116.5" y="39.5352">webapi</text><polygon fill="#FFFFFF" filter="url(#f1uf8fkgd8wf73)" points="22.5,24,63.5,24,70.5,46.4883,77.5,46.4883,77.5,76.9766,22.5,76.9766,22.5,24" style="stroke: #000000; stroke-width: 1.5;"/><line style="stroke: #000000; stroke-width: 1.5;" x1="22.5" x2="70.5" y1="46.4883" y2="46.4883"/><text fill="#000000" font-family="sans-serif" font-size="14" font-weight="bold" lengthAdjust="spacingAndGlyphs" textLength="35" x="26.5" y="39.5352">node</text><!--
@startuml


cloud {
    package webapi {

    }

    package node {

    }
}

@enduml

PlantUML version 1.2018.14(Fri Dec 21 17:33:16 CET 2018)
(GPL source distribution)
Java Runtime: Java(TM) SE Runtime Environment
JVM: Java HotSpot(TM) 64-Bit Server VM
Java Version: 9.0.4+11
Operating System: Mac OS X
OS Version: 10.14.5
Default Encoding: UTF-8
Language: en
Country: NL
--></g></svg>