<?xml version="1.0" encoding="UTF-8" standalone="no"?><svg xmlns="http://www.w3.org/2000/svg" xmlns:xlink="http://www.w3.org/1999/xlink" contentScriptType="application/ecmascript" contentStyleType="text/css" height="256px" preserveAspectRatio="none" style="width:470px;height:256px;" version="1.1" viewBox="0 0 470 256" width="470px" zoomAndPan="magnify"><defs><filter height="300%" id="fo851xg6ezwa2" width="300%" x="-1" y="-1"><feGaussianBlur result="blurOut" stdDeviation="2.0"/><feColorMatrix in="blurOut" result="blurOut2" type="matrix" values="0 0 0 0 0 0 0 0 0 0 0 0 0 0 0 0 0 0 .4 0"/><feOffset dx="4.0" dy="4.0" in="blurOut2" result="blurOut3"/><feBlend in="SourceGraphic" in2="blurOut3" mode="normal"/></filter></defs><g><!--cluster webapi--><polygon fill="#FFFFFF" filter="url(#fo851xg6ezwa2)" points="14,77,71,77,78,99.4883,448,99.4883,448,148,14,148,14,77" style="stroke: #000000; stroke-width: 1.5;"/><line style="stroke: #000000; stroke-width: 1.5;" x1="14" x2="78" y1="99.4883" y2="99.4883"/><text fill="#000000" font-family="sans-serif" font-size="14" font-weight="bold" lengthAdjust="spacingAndGlyphs" textLength="51" x="18" y="92.5352">webapi</text><!--cluster node--><polygon fill="#FFFFFF" filter="url(#fo851xg6ezwa2)" points="228,173,269,173,276,195.4883,334,195.4883,334,244,228,244,228,173" style="stroke: #000000; stroke-width: 1.5;"/><line style="stroke: #000000; stroke-width: 1.5;" x1="228" x2="276" y1="195.4883" y2="195.4883"/><text fill="#000000" font-family="sans-serif" font-size="14" font-weight="bold" lengthAdjust="spacingAndGlyphs" textLength="35" x="232" y="188.5352">node</text><!--entity RestApi--><rect fill="#FEFECE" filter="url(#fo851xg6ezwa2)" height="36.4883" style="stroke: #A80036; stroke-width: 1.5;" width="72" x="368" y="104"/><rect fill="#FEFECE" height="5" style="stroke: #A80036; stroke-width: 1.5;" width="10" x="363" y="109"/><rect fill="#FEFECE" height="5" style="stroke: #A80036; stroke-width: 1.5;" width="10" x="363" y="130.4883"/><text fill="#000000" font-family="sans-serif" font-size="14" lengthAdjust="spacingAndGlyphs" textLength="52" x="378" y="127.5352">RestApi</text><!--entity GraphQLApi--><rect fill="#FEFECE" filter="url(#fo851xg6ezwa2)" height="36.4883" style="stroke: #A80036; stroke-width: 1.5;" width="103" x="229.5" y="104"/><rect fill="#FEFECE" height="5" style="stroke: #A80036; stroke-width: 1.5;" width="10" x="224.5" y="109"/><rect fill="#FEFECE" height="5" style="stroke: #A80036; stroke-width: 1.5;" width="10" x="224.5" y="130.4883"/><text fill="#000000" font-family="sans-serif" font-size="14" lengthAdjust="spacingAndGlyphs" textLength="83" x="239.5" y="127.5352">GraphQLApi</text><!--entity ReactiveWebsocketApi--><rect fill="#FEFECE" filter="url(#fo851xg6ezwa2)" height="36.4883" style="stroke: #A80036; stroke-width: 1.5;" width="172" x="22" y="104"/><rect fill="#FEFECE" height="5" style="stroke: #A80036; stroke-width: 1.5;" width="10" x="17" y="109"/><rect fill="#FEFECE" height="5" style="stroke: #A80036; stroke-width: 1.5;" width="10" x="17" y="130.4883"/><text fill="#000000" font-family="sans-serif" font-size="14" lengthAdjust="spacingAndGlyphs" textLength="152" x="32" y="127.5352">ReactiveWebsocketApi</text><!--entity OdinNode--><rect fill="#FEFECE" filter="url(#fo851xg6ezwa2)" height="36.4883" style="stroke: #A80036; stroke-width: 1.5;" width="89" x="236.5" y="200"/><rect fill="#FEFECE" height="5" style="stroke: #A80036; stroke-width: 1.5;" width="10" x="231.5" y="205"/><rect fill="#FEFECE" height="5" style="stroke: #A80036; stroke-width: 1.5;" width="10" x="231.5" y="226.4883"/><text fill="#000000" font-family="sans-serif" font-size="14" lengthAdjust="spacingAndGlyphs" textLength="69" x="246.5" y="223.5352">OdinNode</text><!--entity WebClient--><rect fill="#FEFECE" filter="url(#fo851xg6ezwa2)" height="36.4883" style="stroke: #A80036; stroke-width: 1.5;" width="89" x="236.5" y="8"/><rect fill="#FEFECE" height="5" style="stroke: #A80036; stroke-width: 1.5;" width="10" x="231.5" y="13"/><rect fill="#FEFECE" height="5" style="stroke: #A80036; stroke-width: 1.5;" width="10" x="231.5" y="34.4883"/><text fill="#000000" font-family="sans-serif" font-size="14" lengthAdjust="spacingAndGlyphs" textLength="69" x="246.5" y="31.5352">WebClient</text><!--entity EmbeddedClient--><rect fill="#FEFECE" filter="url(#fo851xg6ezwa2)" height="36.4883" style="stroke: #A80036; stroke-width: 1.5;" width="133" x="68.5" y="200"/><rect fill="#FEFECE" height="5" style="stroke: #A80036; stroke-width: 1.5;" width="10" x="63.5" y="205"/><rect fill="#FEFECE" height="5" style="stroke: #A80036; stroke-width: 1.5;" width="10" x="63.5" y="226.4883"/><text fill="#000000" font-family="sans-serif" font-size="14" lengthAdjust="spacingAndGlyphs" textLength="113" x="78.5" y="223.5352">EmbeddedClient</text><!--link WebClient to RestApi--><path d="M306.175,44.0668 C319.3653,53.6683 335.7061,65.7771 350,77 C359.486,84.448 369.6956,92.8519 378.6565,100.3636 " fill="none" id="WebClient-RestApi" style="stroke: #A80036; stroke-width: 1.0;"/><polygon fill="#A80036" points="382.9465,103.9715,378.6329,95.1175,379.1198,100.7534,373.4839,101.2402,382.9465,103.9715" style="stroke: #A80036; stroke-width: 1.0;"/><!--link WebClient to GraphQLApi--><path d="M281,44.0569 C281,59.5126 281,81.8647 281,98.6731 " fill="none" id="WebClient-GraphQLApi" style="stroke: #A80036; stroke-width: 1.0;"/><polygon fill="#A80036" points="281,103.6977,285,94.6977,281,98.6977,277,94.6977,281,103.6977" style="stroke: #A80036; stroke-width: 1.0;"/><!--link WebClient to ReactiveWebsocketApi--><path d="M248.46,44.0569 C219.0735,60.3638 175.8527,84.3476 145.1272,101.3976 " fill="none" id="WebClient-ReactiveWebsocketApi" style="stroke: #A80036; stroke-width: 1.0;"/><polygon fill="#A80036" points="140.6877,103.8612,150.4981,102.992,145.0597,101.4352,146.6165,95.9968,140.6877,103.8612" style="stroke: #A80036; stroke-width: 1.0;"/><!--link RestApi to OdinNode--><path d="M380.8646,140.0569 C360.2937,156.1122 330.1881,179.6093 308.4143,196.6035 " fill="none" id="RestApi-OdinNode" style="stroke: #A80036; stroke-width: 1.0;"/><polygon fill="#A80036" points="304.4498,199.6977,314.0057,197.3134,308.3913,196.6213,309.0834,191.0069,304.4498,199.6977" style="stroke: #A80036; stroke-width: 1.0;"/><!--link GraphQLApi to OdinNode--><path d="M281,140.0569 C281,155.5126 281,177.8647 281,194.6731 " fill="none" id="GraphQLApi-OdinNode" style="stroke: #A80036; stroke-width: 1.0;"/><polygon fill="#A80036" points="281,199.6977,285,190.6977,281,194.6977,277,190.6977,281,199.6977" style="stroke: #A80036; stroke-width: 1.0;"/><!--link ReactiveWebsocketApi to OdinNode--><path d="M152.4981,140.0479 C173.1972,149.0435 197.8567,160.6326 219,173 C231.0608,180.0547 243.6638,188.8975 254.333,196.8728 " fill="none" id="ReactiveWebsocketApi-OdinNode" style="stroke: #A80036; stroke-width: 1.0;"/><polygon fill="#A80036" points="258.4737,199.9967,253.6979,191.3832,254.4822,196.9854,248.8799,197.7697,258.4737,199.9967" style="stroke: #A80036; stroke-width: 1.0;"/><!--link EmbeddedClient to OdinNode--><path d="M201.7266,218 C211.5712,218 221.4159,218 231.2606,218 " fill="none" id="EmbeddedClient-OdinNode" style="stroke: #A80036; stroke-width: 1.0;"/><polygon fill="#A80036" points="236.4087,218,227.4087,214,231.4087,218,227.4087,222,236.4087,218" style="stroke: #A80036; stroke-width: 1.0;"/><!--
@startuml


package webapi {
    [RestApi]
    [GraphQLApi]
    [ReactiveWebsocketApi]
}

package node {
    [OdinNode]
}

[WebClient] - -> [RestApi]
[WebClient] - -> [GraphQLApi]
[WebClient] - -> [ReactiveWebsocketApi]

[RestApi] - -> [OdinNode]
[GraphQLApi] - -> [OdinNode]
[ReactiveWebsocketApi] - -> [OdinNode]

[EmbeddedClient] -> [OdinNode]

@enduml

PlantUML version 1.2018.14(Fri Dec 21 17:33:16 CET 2018)
(GPL source distribution)
Java Runtime: Java(TM) SE Runtime Environment
JVM: Java HotSpot(TM) 64-Bit Server VM
Java Version: 9.0.4+11
Operating System: Mac OS X
OS Version: 10.14.5
Default Encoding: UTF-8
Language: en
Country: NL
--></g></svg>