<?xml version="1.0" encoding="UTF-8" standalone="no"?><svg xmlns="http://www.w3.org/2000/svg" xmlns:xlink="http://www.w3.org/1999/xlink" contentScriptType="application/ecmascript" contentStyleType="text/css" height="143px" preserveAspectRatio="none" style="width:595px;height:143px;" version="1.1" viewBox="0 0 595 143" width="595px" zoomAndPan="magnify"><defs><filter height="300%" id="f5v4lll0ndbai" width="300%" x="-1" y="-1"><feGaussianBlur result="blurOut" stdDeviation="2.0"/><feColorMatrix in="blurOut" result="blurOut2" type="matrix" values="0 0 0 0 0 0 0 0 0 0 0 0 0 0 0 0 0 0 .4 0"/><feOffset dx="4.0" dy="4.0" in="blurOut2" result="blurOut3"/><feBlend in="SourceGraphic" in2="blurOut3" mode="normal"/></filter></defs><g><!--cluster webapi--><polygon fill="#FFFFFF" filter="url(#f5v4lll0ndbai)" points="14,60,71,60,78,82.4883,448,82.4883,448,131,14,131,14,60" style="stroke: #000000; stroke-width: 1.5;"/><line style="stroke: #000000; stroke-width: 1.5;" x1="14" x2="78" y1="82.4883" y2="82.4883"/><text fill="#000000" font-family="sans-serif" font-size="14" font-weight="bold" lengthAdjust="spacingAndGlyphs" textLength="51" x="18" y="75.5352">webapi</text><!--cluster node--><polygon fill="#FFFFFF" filter="url(#f5v4lll0ndbai)" points="467,60,508,60,515,82.4883,573,82.4883,573,131,467,131,467,60" style="stroke: #000000; stroke-width: 1.5;"/><line style="stroke: #000000; stroke-width: 1.5;" x1="467" x2="515" y1="82.4883" y2="82.4883"/><text fill="#000000" font-family="sans-serif" font-size="14" font-weight="bold" lengthAdjust="spacingAndGlyphs" textLength="35" x="471" y="75.5352">node</text><!--entity RestApi--><rect fill="#FEFECE" filter="url(#f5v4lll0ndbai)" height="36.4883" style="stroke: #A80036; stroke-width: 1.5;" width="72" x="368" y="87"/><rect fill="#FEFECE" height="5" style="stroke: #A80036; stroke-width: 1.5;" width="10" x="363" y="92"/><rect fill="#FEFECE" height="5" style="stroke: #A80036; stroke-width: 1.5;" width="10" x="363" y="113.4883"/><text fill="#000000" font-family="sans-serif" font-size="14" lengthAdjust="spacingAndGlyphs" textLength="52" x="378" y="110.5352">RestApi</text><!--entity GraphQLApi--><rect fill="#FEFECE" filter="url(#f5v4lll0ndbai)" height="36.4883" style="stroke: #A80036; stroke-width: 1.5;" width="103" x="229.5" y="87"/><rect fill="#FEFECE" height="5" style="stroke: #A80036; stroke-width: 1.5;" width="10" x="224.5" y="92"/><rect fill="#FEFECE" height="5" style="stroke: #A80036; stroke-width: 1.5;" width="10" x="224.5" y="113.4883"/><text fill="#000000" font-family="sans-serif" font-size="14" lengthAdjust="spacingAndGlyphs" textLength="83" x="239.5" y="110.5352">GraphQLApi</text><!--entity ReactiveWebsocketApi--><rect fill="#FEFECE" filter="url(#f5v4lll0ndbai)" height="36.4883" style="stroke: #A80036; stroke-width: 1.5;" width="172" x="22" y="87"/><rect fill="#FEFECE" height="5" style="stroke: #A80036; stroke-width: 1.5;" width="10" x="17" y="92"/><rect fill="#FEFECE" height="5" style="stroke: #A80036; stroke-width: 1.5;" width="10" x="17" y="113.4883"/><text fill="#000000" font-family="sans-serif" font-size="14" lengthAdjust="spacingAndGlyphs" textLength="152" x="32" y="110.5352">ReactiveWebsocketApi</text><!--entity OdinNode--><rect fill="#FEFECE" filter="url(#f5v4lll0ndbai)" height="36.4883" style="stroke: #A80036; stroke-width: 1.5;" width="89" x="475.5" y="87"/><rect fill="#FEFECE" height="5" style="stroke: #A80036; stroke-width: 1.5;" width="10" x="470.5" y="92"/><rect fill="#FEFECE" height="5" style="stroke: #A80036; stroke-width: 1.5;" width="10" x="470.5" y="113.4883"/><text fill="#000000" font-family="sans-serif" font-size="14" lengthAdjust="spacingAndGlyphs" textLength="69" x="485.5" y="110.5352">OdinNode</text><!--link RestApi to OdinNode--><path d="M440.25,105 C450.2423,105 460.2346,105 470.2268,105 " fill="none" id="RestApi-OdinNode" style="stroke: #A80036; stroke-width: 1.0;"/><polygon fill="#A80036" points="475.4521,105,466.4521,101,470.4521,105,466.4521,109,475.4521,105" style="stroke: #A80036; stroke-width: 1.0;"/><!--link GraphQLApi to OdinNode--><path d="M295.143,86.9773 C310.8033,68.6267 337.9132,41.3148 368.5,30 C397.6786,19.2061 409.5162,18.6934 438.5,30 C465.4801,40.525 488.923,64.6247 503.6525,82.6838 " fill="none" id="GraphQLApi-OdinNode" style="stroke: #A80036; stroke-width: 1.0;"/><polygon fill="#A80036" points="506.8427,86.6691,504.341,77.1433,503.718,82.7657,498.0956,82.1428,506.8427,86.6691" style="stroke: #A80036; stroke-width: 1.0;"/><!--link ReactiveWebsocketApi to OdinNode--><path d="M129.0642,86.8649 C152.0004,68.4205 190.629,41.031 229.5,30 C318.8603,4.6408 351.9626,-3.7584 438.5,30 C465.4801,40.525 488.923,64.6247 503.6525,82.6838 " fill="none" id="ReactiveWebsocketApi-OdinNode" style="stroke: #A80036; stroke-width: 1.0;"/><polygon fill="#A80036" points="506.8427,86.6691,504.341,77.1433,503.718,82.7657,498.0956,82.1428,506.8427,86.6691" style="stroke: #A80036; stroke-width: 1.0;"/><!--
@startuml


package webapi {
    [RestApi]
    [GraphQLApi]
    [ReactiveWebsocketApi]
}

package node {
    [OdinNode]
}

[RestApi] -> [OdinNode]
[GraphQLApi] -> [OdinNode]
[ReactiveWebsocketApi] -> [OdinNode]


@enduml

PlantUML version 1.2018.14(Fri Dec 21 17:33:16 CET 2018)
(GPL source distribution)
Java Runtime: Java(TM) SE Runtime Environment
JVM: Java HotSpot(TM) 64-Bit Server VM
Java Version: 9.0.4+11
Operating System: Mac OS X
OS Version: 10.14.5
Default Encoding: UTF-8
Language: en
Country: NL
--></g></svg>