<?xml version="1.0" encoding="UTF-8" standalone="no"?><svg xmlns="http://www.w3.org/2000/svg" xmlns:xlink="http://www.w3.org/1999/xlink" contentScriptType="application/ecmascript" contentStyleType="text/css" height="154px" preserveAspectRatio="none" style="width:604px;height:154px;" version="1.1" viewBox="0 0 604 154" width="604px" zoomAndPan="magnify"><defs><filter height="300%" id="f1t47xp0q8asp" width="300%" x="-1" y="-1"><feGaussianBlur result="blurOut" stdDeviation="2.0"/><feColorMatrix in="blurOut" result="blurOut2" type="matrix" values="0 0 0 0 0 0 0 0 0 0 0 0 0 0 0 0 0 0 .4 0"/><feOffset dx="4.0" dy="4.0" in="blurOut2" result="blurOut3"/><feBlend in="SourceGraphic" in2="blurOut3" mode="normal"/></filter></defs><g><path d="M17,67 C17,64 19,62 22,62 C25,62 27,64 27,67 C27,64 29,62 32,62 C35,62 37,64 37,67 C37,64 39,62 42,62 C45,62 47,64 47,67 C47,64 49,62 52,62 C55,62 57,64 57,67 C57,64 59,62 62,62 C65,62 67,64 67,67 C67,64 69,62 72,62 C75,62 77,64 77,67 C77,64 79,62 82,62 C85,62 87,64 87,67 C87,64 89,62 92,62 C95,62 97,64 97,67 C97,64 99,62 102,62 C105,62 107,64 107,67 C107,64 109,62 112,62 C115,62 117,64 117,67 C117,64 119,62 122,62 C125,62 127,64 127,67 C127,64 129,62 132,62 C135,62 137,64 137,67 C137,64 139,62 142,62 C145,62 147,64 147,67 C147,64 149,62 152,62 C155,62 157,64 157,67 C157,64 159,62 162,62 C165,62 167,64 167,67 C167,64 169,62 172,62 C175,62 177,64 177,67 C177,64 179,62 182,62 C185,62 187,64 187,67 C187,64 189,62 192,62 C195,62 197,64 197,67 C197,64 199,62 202,62 C205,62 207,64 207,67 C207,64 209,62 212,62 C215,62 217,64 217,67 C217,64 219,62 222,62 C225,62 227,64 227,67 C227,64 229,62 232,62 C235,62 237,64 237,67 C237,64 239,62 242,62 C245,62 247,64 247,67 C247,64 249,62 252,62 C255,62 257,64 257,67 C257,64 259,62 262,62 C265,62 267,64 267,67 C267,64 269,62 272,62 C275,62 277,64 277,67 C277,64 279,62 282,62 C285,62 287,64 287,67 C287,64 289,62 292,62 C295,62 297,64 297,67 C297,64 299,62 302,62 C305,62 307,64 307,67 C307,64 309,62 312,62 C315,62 317,64 317,67 C317,64 319,62 322,62 C325,62 327,64 327,67 C327,64 329,62 332,62 C335,62 337,64 337,67 C337,64 339,62 342,62 C345,62 347,64 347,67 C347,64 349,62 352,62 C355,62 357,64 357,67 C357,64 359,62 362,62 C365,62 367,64 367,67 C367,64 369,62 372,62 C375,62 377,64 377,67 C377,64 379,62 382,62 C385,62 387,64 387,67 C387,64 389,62 392,62 C395,62 397,64 397,67 C397,64 399,62 402,62 C405,62 407,64 407,67 C407,64 409,62 412,62 C415,62 417,64 417,67 C417,64 419,62 422,62 C425,62 427,64 427,67 C427,64 429,62 432,62 C435,62 437,64 437,67 C437,64 439,62 442,62 C445,62 447,64 447,67 C447,64 449,62 452,62 C455,62 457,64 457,67 C457,64 459,62 462,62 C465,62 467,64 467,67 C467,64 469,62 472,62 C475,62 477,64 477,67 C477,64 479,62 482,62 C485,62 487,64 487,67 C487,64 489,62 492,62 C495,62 497,64 497,67 C497,64 499,62 502,62 C505,62 507,64 507,67 C507,64 509,62 512,62 C515,62 517,64 517,67 C517,64 519,62 522,62 C525,62 527,64 527,67 C527,64 529,62 532,62 C535,62 537,64 537,67 C537,64 539,62 542,62 C545,62 547,64 547,67 C547,64 549,62 552,62 C555,62 557,64 557,67 C557,64 559,62 562,62 C565,62 567,64 567,67 C567,64 569,62 572,62 C575,62 577,64 577,67 C577,64 579,62 582,62 C585,62 587,64 587,67 C590,67 592,69 592,72 C592,75 590,77 587,77 C590,77 592,79 592,82 C592,85 590,87 587,87 C590,87 592,89 592,92 C592,95 590,97 587,97 C590,97 592,99 592,102 C592,105 590,107 587,107 C590,107 592,109 592,112 C592,115 590,117 587,117 C590,117 592,119 592,122 C592,125 590,127 587,127 C590,127 592,129 592,132 C592,135 590,137 587,137 C587,140 584,142 582,142 C579,142 577,140 577,137 C577,140 574,142 572,142 C569,142 567,140 567,137 C567,140 564,142 562,142 C559,142 557,140 557,137 C557,140 554,142 552,142 C549,142 547,140 547,137 C547,140 544,142 542,142 C539,142 537,140 537,137 C537,140 534,142 532,142 C529,142 527,140 527,137 C527,140 524,142 522,142 C519,142 517,140 517,137 C517,140 514,142 512,142 C509,142 507,140 507,137 C507,140 504,142 502,142 C499,142 497,140 497,137 C497,140 494,142 492,142 C489,142 487,140 487,137 C487,140 484,142 482,142 C479,142 477,140 477,137 C477,140 474,142 472,142 C469,142 467,140 467,137 C467,140 464,142 462,142 C459,142 457,140 457,137 C457,140 454,142 452,142 C449,142 447,140 447,137 C447,140 444,142 442,142 C439,142 437,140 437,137 C437,140 434,142 432,142 C429,142 427,140 427,137 C427,140 424,142 422,142 C419,142 417,140 417,137 C417,140 414,142 412,142 C409,142 407,140 407,137 C407,140 404,142 402,142 C399,142 397,140 397,137 C397,140 394,142 392,142 C389,142 387,140 387,137 C387,140 384,142 382,142 C379,142 377,140 377,137 C377,140 374,142 372,142 C369,142 367,140 367,137 C367,140 364,142 362,142 C359,142 357,140 357,137 C357,140 354,142 352,142 C349,142 347,140 347,137 C347,140 344,142 342,142 C339,142 337,140 337,137 C337,140 334,142 332,142 C329,142 327,140 327,137 C327,140 324,142 322,142 C319,142 317,140 317,137 C317,140 314,142 312,142 C309,142 307,140 307,137 C307,140 304,142 302,142 C299,142 297,140 297,137 C297,140 294,142 292,142 C289,142 287,140 287,137 C287,140 284,142 282,142 C279,142 277,140 277,137 C277,140 274,142 272,142 C269,142 267,140 267,137 C267,140 264,142 262,142 C259,142 257,140 257,137 C257,140 254,142 252,142 C249,142 247,140 247,137 C247,140 244,142 242,142 C239,142 237,140 237,137 C237,140 234,142 232,142 C229,142 227,140 227,137 C227,140 224,142 222,142 C219,142 217,140 217,137 C217,140 214,142 212,142 C209,142 207,140 207,137 C207,140 204,142 202,142 C199,142 197,140 197,137 C197,140 194,142 192,142 C189,142 187,140 187,137 C187,140 184,142 182,142 C179,142 177,140 177,137 C177,140 174,142 172,142 C169,142 167,140 167,137 C167,140 164,142 162,142 C159,142 157,140 157,137 C157,140 154,142 152,142 C149,142 147,140 147,137 C147,140 144,142 142,142 C139,142 137,140 137,137 C137,140 134,142 132,142 C129,142 127,140 127,137 C127,140 124,142 122,142 C119,142 117,140 117,137 C117,140 114,142 112,142 C109,142 107,140 107,137 C107,140 104,142 102,142 C99,142 97,140 97,137 C97,140 94,142 92,142 C89,142 87,140 87,137 C87,140 84,142 82,142 C79,142 77,140 77,137 C77,140 74,142 72,142 C69,142 67,140 67,137 C67,140 64,142 62,142 C59,142 57,140 57,137 C57,140 54,142 52,142 C49,142 47,140 47,137 C47,140 44,142 42,142 C39,142 37,140 37,137 C37,140 34,142 32,142 C29,142 27,140 27,137 C27,140 24,142 22,142 C19,142 17,140 17,137 C14,137 12,135 12,132 C12,129 14,127 17,127 C14,127 12,125 12,122 C12,119 14,117 17,117 C14,117 12,115 12,112 C12,109 14,107 17,107 C14,107 12,105 12,102 C12,99 14,97 17,97 C14,97 12,95 12,92 C12,89 14,87 17,87 C14,87 12,85 12,82 C12,79 14,77 17,77 C14,77 12,75 12,72 C12,69 14,67 17,67 " fill="#FFFFFF" filter="url(#f1t47xp0q8asp)" style="stroke: #000000; stroke-width: 1.5;"/><!--cluster webapi--><polygon fill="#FFFFFF" filter="url(#f1t47xp0q8asp)" points="147,68,204,68,211,90.4883,581,90.4883,581,139,147,139,147,68" style="stroke: #000000; stroke-width: 1.5;"/><line style="stroke: #000000; stroke-width: 1.5;" x1="147" x2="211" y1="90.4883" y2="90.4883"/><text fill="#000000" font-family="sans-serif" font-size="14" font-weight="bold" lengthAdjust="spacingAndGlyphs" textLength="51" x="151" y="83.5352">webapi</text><!--cluster node--><polygon fill="#FFFFFF" filter="url(#f1t47xp0q8asp)" points="22,68,63,68,70,90.4883,128,90.4883,128,139,22,139,22,68" style="stroke: #000000; stroke-width: 1.5;"/><line style="stroke: #000000; stroke-width: 1.5;" x1="22" x2="70" y1="90.4883" y2="90.4883"/><text fill="#000000" font-family="sans-serif" font-size="14" font-weight="bold" lengthAdjust="spacingAndGlyphs" textLength="35" x="26" y="83.5352">node</text><!--entity RestApi--><rect fill="#FEFECE" filter="url(#f1t47xp0q8asp)" height="36.4883" style="stroke: #A80036; stroke-width: 1.5;" width="72" x="501" y="95"/><rect fill="#FEFECE" height="5" style="stroke: #A80036; stroke-width: 1.5;" width="10" x="496" y="100"/><rect fill="#FEFECE" height="5" style="stroke: #A80036; stroke-width: 1.5;" width="10" x="496" y="121.4883"/><text fill="#000000" font-family="sans-serif" font-size="14" lengthAdjust="spacingAndGlyphs" textLength="52" x="511" y="118.5352">RestApi</text><!--entity GraphQLApi--><rect fill="#FEFECE" filter="url(#f1t47xp0q8asp)" height="36.4883" style="stroke: #A80036; stroke-width: 1.5;" width="103" x="362.5" y="95"/><rect fill="#FEFECE" height="5" style="stroke: #A80036; stroke-width: 1.5;" width="10" x="357.5" y="100"/><rect fill="#FEFECE" height="5" style="stroke: #A80036; stroke-width: 1.5;" width="10" x="357.5" y="121.4883"/><text fill="#000000" font-family="sans-serif" font-size="14" lengthAdjust="spacingAndGlyphs" textLength="83" x="372.5" y="118.5352">GraphQLApi</text><!--entity ReactiveWebsocketApi--><rect fill="#FEFECE" filter="url(#f1t47xp0q8asp)" height="36.4883" style="stroke: #A80036; stroke-width: 1.5;" width="172" x="155" y="95"/><rect fill="#FEFECE" height="5" style="stroke: #A80036; stroke-width: 1.5;" width="10" x="150" y="100"/><rect fill="#FEFECE" height="5" style="stroke: #A80036; stroke-width: 1.5;" width="10" x="150" y="121.4883"/><text fill="#000000" font-family="sans-serif" font-size="14" lengthAdjust="spacingAndGlyphs" textLength="152" x="165" y="118.5352">ReactiveWebsocketApi</text><!--entity OdinNode--><rect fill="#FEFECE" filter="url(#f1t47xp0q8asp)" height="36.4883" style="stroke: #A80036; stroke-width: 1.5;" width="89" x="30.5" y="95"/><rect fill="#FEFECE" height="5" style="stroke: #A80036; stroke-width: 1.5;" width="10" x="25.5" y="100"/><rect fill="#FEFECE" height="5" style="stroke: #A80036; stroke-width: 1.5;" width="10" x="25.5" y="121.4883"/><text fill="#000000" font-family="sans-serif" font-size="14" lengthAdjust="spacingAndGlyphs" textLength="69" x="40.5" y="118.5352">OdinNode</text><!--link RestApi to OdinNode--><path d="M527.5523,94.6793 C516.0024,74.5242 494.3725,43.2362 465.5,30 C403.08,1.3844 219.8193,3.4334 156.5,30 C127.2919,42.2547 103.2814,70.6486 89.0634,90.8056 " fill="none" id="RestApi-OdinNode" style="stroke: #A80036; stroke-width: 1.0;"/><polygon fill="#A80036" points="86.1797,94.9731,94.5902,89.8482,89.0248,90.8615,88.0115,85.2961,86.1797,94.9731" style="stroke: #A80036; stroke-width: 1.0;"/><!--link GraphQLApi to OdinNode--><path d="M401.8632,94.9447 C387.0549,74.7145 359.9399,43.0464 327.5,30 C256.9887,1.6424 226.5815,0.5962 156.5,30 C127.2919,42.2547 103.2814,70.6486 89.0634,90.8056 " fill="none" id="GraphQLApi-OdinNode" style="stroke: #A80036; stroke-width: 1.0;"/><polygon fill="#A80036" points="86.1797,94.9731,94.5902,89.8482,89.0248,90.8615,88.0115,85.2961,86.1797,94.9731" style="stroke: #A80036; stroke-width: 1.0;"/><!--link ReactiveWebsocketApi to OdinNode--><path d="M154.7933,113 C144.8439,113 134.8945,113 124.9451,113 " fill="none" id="ReactiveWebsocketApi-OdinNode" style="stroke: #A80036; stroke-width: 1.0;"/><polygon fill="#A80036" points="119.7422,113,128.7422,117,124.7422,113,128.7422,109,119.7422,113" style="stroke: #A80036; stroke-width: 1.0;"/><!--
@startuml


cloud {
    package webapi {
        [RestApi]
        [GraphQLApi]
        [ReactiveWebsocketApi]
    }

    package node {
        [OdinNode]
    }
}

[RestApi] -> [OdinNode]
[GraphQLApi] -> [OdinNode]
[ReactiveWebsocketApi] -> [OdinNode]


@enduml

PlantUML version 1.2018.14(Fri Dec 21 17:33:16 CET 2018)
(GPL source distribution)
Java Runtime: Java(TM) SE Runtime Environment
JVM: Java HotSpot(TM) 64-Bit Server VM
Java Version: 9.0.4+11
Operating System: Mac OS X
OS Version: 10.14.5
Default Encoding: UTF-8
Language: en
Country: NL
--></g></svg>