<?xml version="1.0" encoding="UTF-8" standalone="no"?><svg xmlns="http://www.w3.org/2000/svg" xmlns:xlink="http://www.w3.org/1999/xlink" contentScriptType="application/ecmascript" contentStyleType="text/css" height="223px" preserveAspectRatio="none" style="width:941px;height:223px;" version="1.1" viewBox="0 0 941 223" width="941px" zoomAndPan="magnify"><defs><filter height="300%" id="f1qlojrdpgkdjd" width="300%" x="-1" y="-1"><feGaussianBlur result="blurOut" stdDeviation="2.0"/><feColorMatrix in="blurOut" result="blurOut2" type="matrix" values="0 0 0 0 0 0 0 0 0 0 0 0 0 0 0 0 0 0 .4 0"/><feOffset dx="4.0" dy="4.0" in="blurOut2" result="blurOut3"/><feBlend in="SourceGraphic" in2="blurOut3" mode="normal"/></filter></defs><g><line style="stroke: #A80036; stroke-width: 1.0; stroke-dasharray: 5.0,5.0;" x1="57" x2="57" y1="86.4883" y2="135.7988"/><line style="stroke: #A80036; stroke-width: 1.0; stroke-dasharray: 5.0,5.0;" x1="211" x2="211" y1="86.4883" y2="135.7988"/><line style="stroke: #A80036; stroke-width: 1.0; stroke-dasharray: 5.0,5.0;" x1="306" x2="306" y1="86.4883" y2="135.7988"/><line style="stroke: #A80036; stroke-width: 1.0; stroke-dasharray: 5.0,5.0;" x1="438" x2="438" y1="86.4883" y2="135.7988"/><line style="stroke: #A80036; stroke-width: 1.0; stroke-dasharray: 5.0,5.0;" x1="583" x2="583" y1="86.4883" y2="135.7988"/><line style="stroke: #A80036; stroke-width: 1.0; stroke-dasharray: 5.0,5.0;" x1="716" x2="716" y1="86.4883" y2="135.7988"/><line style="stroke: #A80036; stroke-width: 1.0; stroke-dasharray: 5.0,5.0;" x1="856" x2="856" y1="86.4883" y2="135.7988"/><text fill="#000000" font-family="sans-serif" font-size="14" lengthAdjust="spacingAndGlyphs" textLength="93" x="8" y="83.5352">User/Browser</text><ellipse cx="57.5" cy="13" fill="#FEFECE" filter="url(#f1qlojrdpgkdjd)" rx="8" ry="8" style="stroke: #A80036; stroke-width: 2.0;"/><path d="M57.5,21 L57.5,48 M44.5,29 L70.5,29 M57.5,48 L44.5,63 M57.5,48 L70.5,63 " fill="none" filter="url(#f1qlojrdpgkdjd)" style="stroke: #A80036; stroke-width: 2.0;"/><text fill="#000000" font-family="sans-serif" font-size="14" lengthAdjust="spacingAndGlyphs" textLength="93" x="8" y="148.334">User/Browser</text><ellipse cx="57.5" cy="161.2871" fill="#FEFECE" filter="url(#f1qlojrdpgkdjd)" rx="8" ry="8" style="stroke: #A80036; stroke-width: 2.0;"/><path d="M57.5,169.2871 L57.5,196.2871 M44.5,177.2871 L70.5,177.2871 M57.5,196.2871 L44.5,211.2871 M57.5,196.2871 L70.5,211.2871 " fill="none" filter="url(#f1qlojrdpgkdjd)" style="stroke: #A80036; stroke-width: 2.0;"/><rect fill="#FEFECE" filter="url(#f1qlojrdpgkdjd)" height="30.4883" style="stroke: #A80036; stroke-width: 1.5;" width="47" x="186" y="51"/><text fill="#000000" font-family="sans-serif" font-size="14" lengthAdjust="spacingAndGlyphs" textLength="33" x="193" y="71.5352">Odin</text><rect fill="#FEFECE" filter="url(#f1qlojrdpgkdjd)" height="30.4883" style="stroke: #A80036; stroke-width: 1.5;" width="47" x="186" y="134.7988"/><text fill="#000000" font-family="sans-serif" font-size="14" lengthAdjust="spacingAndGlyphs" textLength="33" x="193" y="155.334">Odin</text><text fill="#000000" font-family="sans-serif" font-size="14" lengthAdjust="spacingAndGlyphs" textLength="112" x="247" y="83.5352">OpenID Provider</text><ellipse cx="306" cy="13" fill="#FEFECE" filter="url(#f1qlojrdpgkdjd)" rx="8" ry="8" style="stroke: #A80036; stroke-width: 2.0;"/><path d="M306,21 L306,48 M293,29 L319,29 M306,48 L293,63 M306,48 L319,63 " fill="none" filter="url(#f1qlojrdpgkdjd)" style="stroke: #A80036; stroke-width: 2.0;"/><text fill="#000000" font-family="sans-serif" font-size="14" lengthAdjust="spacingAndGlyphs" textLength="112" x="247" y="148.334">OpenID Provider</text><ellipse cx="306" cy="161.2871" fill="#FEFECE" filter="url(#f1qlojrdpgkdjd)" rx="8" ry="8" style="stroke: #A80036; stroke-width: 2.0;"/><path d="M306,169.2871 L306,196.2871 M293,177.2871 L319,177.2871 M306,196.2871 L293,211.2871 M306,196.2871 L319,211.2871 " fill="none" filter="url(#f1qlojrdpgkdjd)" style="stroke: #A80036; stroke-width: 2.0;"/><rect fill="#FEFECE" filter="url(#f1qlojrdpgkdjd)" height="30.4883" style="stroke: #A80036; stroke-width: 1.5;" width="123" x="375" y="51"/><text fill="#000000" font-family="sans-serif" font-size="14" lengthAdjust="spacingAndGlyphs" textLength="109" x="382" y="71.5352">Token endpoint</text><rect fill="#FEFECE" filter="url(#f1qlojrdpgkdjd)" height="30.4883" style="stroke: #A80036; stroke-width: 1.5;" width="123" x="375" y="134.7988"/><text fill="#000000" font-family="sans-serif" font-size="14" lengthAdjust="spacingAndGlyphs" textLength="109" x="382" y="155.334">Token endpoint</text><rect fill="#FEFECE" filter="url(#f1qlojrdpgkdjd)" height="30.4883" style="stroke: #A80036; stroke-width: 1.5;" width="138" x="512" y="51"/><text fill="#000000" font-family="sans-serif" font-size="14" lengthAdjust="spacingAndGlyphs" textLength="124" x="519" y="71.5352">UserInfo endpoint</text><rect fill="#FEFECE" filter="url(#f1qlojrdpgkdjd)" height="30.4883" style="stroke: #A80036; stroke-width: 1.5;" width="138" x="512" y="134.7988"/><text fill="#000000" font-family="sans-serif" font-size="14" lengthAdjust="spacingAndGlyphs" textLength="124" x="519" y="155.334">UserInfo endpoint</text><text fill="#000000" font-family="sans-serif" font-size="14" lengthAdjust="spacingAndGlyphs" textLength="98" x="664" y="83.5352">User Identities</text><path d="M698,34 C698,24 716,24 716,24 C716,24 734,24 734,34 L734,60 C734,70 716,70 716,70 C716,70 698,70 698,60 L698,34 " fill="#FEFECE" filter="url(#f1qlojrdpgkdjd)" style="stroke: #000000; stroke-width: 1.5;"/><path d="M698,34 C698,44 716,44 716,44 C716,44 734,44 734,34 " fill="none" style="stroke: #000000; stroke-width: 1.5;"/><text fill="#000000" font-family="sans-serif" font-size="14" lengthAdjust="spacingAndGlyphs" textLength="98" x="664" y="148.334">User Identities</text><path d="M698,161.2871 C698,151.2871 716,151.2871 716,151.2871 C716,151.2871 734,151.2871 734,161.2871 L734,187.2871 C734,197.2871 716,197.2871 716,197.2871 C716,197.2871 698,197.2871 698,187.2871 L698,161.2871 " fill="#FEFECE" filter="url(#f1qlojrdpgkdjd)" style="stroke: #000000; stroke-width: 1.5;"/><path d="M698,161.2871 C698,171.2871 716,171.2871 716,171.2871 C716,171.2871 734,171.2871 734,161.2871 " fill="none" style="stroke: #000000; stroke-width: 1.5;"/><text fill="#000000" font-family="sans-serif" font-size="14" lengthAdjust="spacingAndGlyphs" textLength="151" x="778" y="83.5352">UserMachineIdentities</text><path d="M838.5,34 C838.5,24 856.5,24 856.5,24 C856.5,24 874.5,24 874.5,34 L874.5,60 C874.5,70 856.5,70 856.5,70 C856.5,70 838.5,70 838.5,60 L838.5,34 " fill="#FEFECE" filter="url(#f1qlojrdpgkdjd)" style="stroke: #000000; stroke-width: 1.5;"/><path d="M838.5,34 C838.5,44 856.5,44 856.5,44 C856.5,44 874.5,44 874.5,34 " fill="none" style="stroke: #000000; stroke-width: 1.5;"/><text fill="#000000" font-family="sans-serif" font-size="14" lengthAdjust="spacingAndGlyphs" textLength="151" x="778" y="148.334">UserMachineIdentities</text><path d="M838.5,161.2871 C838.5,151.2871 856.5,151.2871 856.5,151.2871 C856.5,151.2871 874.5,151.2871 874.5,161.2871 L874.5,187.2871 C874.5,197.2871 856.5,197.2871 856.5,197.2871 C856.5,197.2871 838.5,197.2871 838.5,187.2871 L838.5,161.2871 " fill="#FEFECE" filter="url(#f1qlojrdpgkdjd)" style="stroke: #000000; stroke-width: 1.5;"/><path d="M838.5,161.2871 C838.5,171.2871 856.5,171.2871 856.5,171.2871 C856.5,171.2871 874.5,171.2871 874.5,161.2871 " fill="none" style="stroke: #000000; stroke-width: 1.5;"/><polygon fill="#A80036" points="199.5,113.7988,209.5,117.7988,199.5,121.7988,203.5,117.7988" style="stroke: #A80036; stroke-width: 1.0;"/><line style="stroke: #A80036; stroke-width: 1.0;" x1="57.5" x2="205.5" y1="117.7988" y2="117.7988"/><text fill="#000000" font-family="sans-serif" font-size="13" lengthAdjust="spacingAndGlyphs" textLength="130" x="64.5" y="113.0566">Requests home page</text><!--
@startuml


actor "User/Browser" as user
participant Odin as odin
actor "OpenID Provider" as openId
participant "Token endpoint" as getToken
participant "UserInfo endpoint" as userInfo
database "User Identities" as usersDb
database "UserMachineIdentities" as machinesDb

user -> odin : Requests home page


@enduml

PlantUML version 1.2018.14(Fri Dec 21 17:33:16 CET 2018)
(GPL source distribution)
Java Runtime: Java(TM) SE Runtime Environment
JVM: Java HotSpot(TM) 64-Bit Server VM
Java Version: 9.0.4+11
Operating System: Mac OS X
OS Version: 10.14.5
Default Encoding: UTF-8
Language: en
Country: NL
--></g></svg>