<?xml version="1.0" encoding="UTF-8" standalone="no"?><svg xmlns="http://www.w3.org/2000/svg" xmlns:xlink="http://www.w3.org/1999/xlink" contentScriptType="application/ecmascript" contentStyleType="text/css" height="352px" preserveAspectRatio="none" style="width:579px;height:352px;" version="1.1" viewBox="0 0 579 352" width="579px" zoomAndPan="magnify"><defs><filter height="300%" id="flw8jf8eevoft" width="300%" x="-1" y="-1"><feGaussianBlur result="blurOut" stdDeviation="2.0"/><feColorMatrix in="blurOut" result="blurOut2" type="matrix" values="0 0 0 0 0 0 0 0 0 0 0 0 0 0 0 0 0 0 .4 0"/><feOffset dx="4.0" dy="4.0" in="blurOut2" result="blurOut3"/><feBlend in="SourceGraphic" in2="blurOut3" mode="normal"/></filter></defs><g><!--cluster webapi--><polygon fill="#FFFFFF" filter="url(#flw8jf8eevoft)" points="123.5,77,180.5,77,187.5,99.4883,557.5,99.4883,557.5,148,123.5,148,123.5,77" style="stroke: #000000; stroke-width: 1.5;"/><line style="stroke: #000000; stroke-width: 1.5;" x1="123.5" x2="187.5" y1="99.4883" y2="99.4883"/><text fill="#000000" font-family="sans-serif" font-size="14" font-weight="bold" lengthAdjust="spacingAndGlyphs" textLength="51" x="127.5" y="92.5352">webapi</text><!--cluster node--><polygon fill="#FFFFFF" filter="url(#flw8jf8eevoft)" points="165.5,173,206.5,173,213.5,195.4883,443.5,195.4883,443.5,244,165.5,244,165.5,173" style="stroke: #000000; stroke-width: 1.5;"/><line style="stroke: #000000; stroke-width: 1.5;" x1="165.5" x2="213.5" y1="195.4883" y2="195.4883"/><text fill="#000000" font-family="sans-serif" font-size="14" font-weight="bold" lengthAdjust="spacingAndGlyphs" textLength="35" x="169.5" y="188.5352">node</text><!--cluster Datasource--><path d="M152.5,264 C152.5,254 296,254 296,254 C296,254 439.5,254 439.5,264 L439.5,330 C439.5,340 296,340 296,340 C296,340 152.5,340 152.5,330 L152.5,264 " fill="#FFFFFF" filter="url(#flw8jf8eevoft)" style="stroke: #000000; stroke-width: 1.5;"/><path d="M152.5,264 C152.5,274 296,274 296,274 C296,274 439.5,274 439.5,264 " fill="none" style="stroke: #000000; stroke-width: 1.5;"/><text fill="#000000" font-family="sans-serif" font-size="14" font-weight="bold" lengthAdjust="spacingAndGlyphs" textLength="80" x="256" y="289.5352">Datasource</text><!--entity RestApi--><rect fill="#FEFECE" filter="url(#flw8jf8eevoft)" height="36.4883" style="stroke: #A80036; stroke-width: 1.5;" width="72" x="477.5" y="104"/><rect fill="#FEFECE" height="5" style="stroke: #A80036; stroke-width: 1.5;" width="10" x="472.5" y="109"/><rect fill="#FEFECE" height="5" style="stroke: #A80036; stroke-width: 1.5;" width="10" x="472.5" y="130.4883"/><text fill="#000000" font-family="sans-serif" font-size="14" lengthAdjust="spacingAndGlyphs" textLength="52" x="487.5" y="127.5352">RestApi</text><!--entity GraphQLApi--><rect fill="#FEFECE" filter="url(#flw8jf8eevoft)" height="36.4883" style="stroke: #A80036; stroke-width: 1.5;" width="103" x="339" y="104"/><rect fill="#FEFECE" height="5" style="stroke: #A80036; stroke-width: 1.5;" width="10" x="334" y="109"/><rect fill="#FEFECE" height="5" style="stroke: #A80036; stroke-width: 1.5;" width="10" x="334" y="130.4883"/><text fill="#000000" font-family="sans-serif" font-size="14" lengthAdjust="spacingAndGlyphs" textLength="83" x="349" y="127.5352">GraphQLApi</text><!--entity ReactiveWebsocketApi--><rect fill="#FEFECE" filter="url(#flw8jf8eevoft)" height="36.4883" style="stroke: #A80036; stroke-width: 1.5;" width="172" x="131.5" y="104"/><rect fill="#FEFECE" height="5" style="stroke: #A80036; stroke-width: 1.5;" width="10" x="126.5" y="109"/><rect fill="#FEFECE" height="5" style="stroke: #A80036; stroke-width: 1.5;" width="10" x="126.5" y="130.4883"/><text fill="#000000" font-family="sans-serif" font-size="14" lengthAdjust="spacingAndGlyphs" textLength="152" x="141.5" y="127.5352">ReactiveWebsocketApi</text><!--entity OdinNode--><rect fill="#FEFECE" filter="url(#flw8jf8eevoft)" height="36.4883" style="stroke: #A80036; stroke-width: 1.5;" width="89" x="346" y="200"/><rect fill="#FEFECE" height="5" style="stroke: #A80036; stroke-width: 1.5;" width="10" x="341" y="205"/><rect fill="#FEFECE" height="5" style="stroke: #A80036; stroke-width: 1.5;" width="10" x="341" y="226.4883"/><text fill="#000000" font-family="sans-serif" font-size="14" lengthAdjust="spacingAndGlyphs" textLength="69" x="356" y="223.5352">OdinNode</text><!--entity DataflowRuntime--><rect fill="#FEFECE" filter="url(#flw8jf8eevoft)" height="36.4883" style="stroke: #A80036; stroke-width: 1.5;" width="137" x="174" y="200"/><rect fill="#FEFECE" height="5" style="stroke: #A80036; stroke-width: 1.5;" width="10" x="169" y="205"/><rect fill="#FEFECE" height="5" style="stroke: #A80036; stroke-width: 1.5;" width="10" x="169" y="226.4883"/><text fill="#000000" font-family="sans-serif" font-size="14" lengthAdjust="spacingAndGlyphs" textLength="117" x="184" y="223.5352">DataflowRuntime</text><!--entity BaseData--><rect fill="#FEFECE" filter="url(#flw8jf8eevoft)" height="36.4883" style="stroke: #A80036; stroke-width: 1.5;" width="82" x="349.5" y="296"/><rect fill="#FEFECE" height="5" style="stroke: #A80036; stroke-width: 1.5;" width="10" x="344.5" y="301"/><rect fill="#FEFECE" height="5" style="stroke: #A80036; stroke-width: 1.5;" width="10" x="344.5" y="322.4883"/><text fill="#000000" font-family="sans-serif" font-size="14" lengthAdjust="spacingAndGlyphs" textLength="62" x="359.5" y="319.5352">BaseData</text><!--entity DataflowDefinitions--><rect fill="#FEFECE" filter="url(#flw8jf8eevoft)" height="36.4883" style="stroke: #A80036; stroke-width: 1.5;" width="154" x="160.5" y="296"/><rect fill="#FEFECE" height="5" style="stroke: #A80036; stroke-width: 1.5;" width="10" x="155.5" y="301"/><rect fill="#FEFECE" height="5" style="stroke: #A80036; stroke-width: 1.5;" width="10" x="155.5" y="322.4883"/><text fill="#000000" font-family="sans-serif" font-size="14" lengthAdjust="spacingAndGlyphs" textLength="134" x="170.5" y="319.5352">DataflowDefinitions</text><!--entity WebClient--><rect fill="#FEFECE" filter="url(#flw8jf8eevoft)" height="36.4883" style="stroke: #A80036; stroke-width: 1.5;" width="89" x="346" y="8"/><rect fill="#FEFECE" height="5" style="stroke: #A80036; stroke-width: 1.5;" width="10" x="341" y="13"/><rect fill="#FEFECE" height="5" style="stroke: #A80036; stroke-width: 1.5;" width="10" x="341" y="34.4883"/><text fill="#000000" font-family="sans-serif" font-size="14" lengthAdjust="spacingAndGlyphs" textLength="69" x="356" y="31.5352">WebClient</text><!--entity EmbeddedClient--><rect fill="#FEFECE" filter="url(#flw8jf8eevoft)" height="36.4883" style="stroke: #A80036; stroke-width: 1.5;" width="133" x="6" y="200"/><rect fill="#FEFECE" height="5" style="stroke: #A80036; stroke-width: 1.5;" width="10" x="1" y="205"/><rect fill="#FEFECE" height="5" style="stroke: #A80036; stroke-width: 1.5;" width="10" x="1" y="226.4883"/><text fill="#000000" font-family="sans-serif" font-size="14" lengthAdjust="spacingAndGlyphs" textLength="113" x="16" y="223.5352">EmbeddedClient</text><!--link WebClient to RestApi--><path d="M415.675,44.0668 C428.8653,53.6683 445.2061,65.7771 459.5,77 C468.986,84.448 479.1956,92.8519 488.1565,100.3636 " fill="none" id="WebClient-RestApi" style="stroke: #A80036; stroke-width: 1.0;"/><polygon fill="#A80036" points="492.4465,103.9715,488.1329,95.1175,488.6198,100.7534,482.9839,101.2402,492.4465,103.9715" style="stroke: #A80036; stroke-width: 1.0;"/><!--link WebClient to GraphQLApi--><path d="M390.5,44.0569 C390.5,59.5126 390.5,81.8647 390.5,98.6731 " fill="none" id="WebClient-GraphQLApi" style="stroke: #A80036; stroke-width: 1.0;"/><polygon fill="#A80036" points="390.5,103.6977,394.5,94.6977,390.5,98.6977,386.5,94.6977,390.5,103.6977" style="stroke: #A80036; stroke-width: 1.0;"/><!--link WebClient to ReactiveWebsocketApi--><path d="M357.96,44.0569 C328.5735,60.3638 285.3527,84.3476 254.6272,101.3976 " fill="none" id="WebClient-ReactiveWebsocketApi" style="stroke: #A80036; stroke-width: 1.0;"/><polygon fill="#A80036" points="250.1877,103.8612,259.9981,102.992,254.5597,101.4352,256.1165,95.9968,250.1877,103.8612" style="stroke: #A80036; stroke-width: 1.0;"/><!--link RestApi to OdinNode--><path d="M490.3646,140.0569 C469.7937,156.1122 439.6881,179.6093 417.9143,196.6035 " fill="none" id="RestApi-OdinNode" style="stroke: #A80036; stroke-width: 1.0;"/><polygon fill="#A80036" points="413.9498,199.6977,423.5057,197.3134,417.8913,196.6213,418.5834,191.0069,413.9498,199.6977" style="stroke: #A80036; stroke-width: 1.0;"/><!--link GraphQLApi to OdinNode--><path d="M390.5,140.0569 C390.5,155.5126 390.5,177.8647 390.5,194.6731 " fill="none" id="GraphQLApi-OdinNode" style="stroke: #A80036; stroke-width: 1.0;"/><polygon fill="#A80036" points="390.5,199.6977,394.5,190.6977,390.5,194.6977,386.5,190.6977,390.5,199.6977" style="stroke: #A80036; stroke-width: 1.0;"/><!--link ReactiveWebsocketApi to OdinNode--><path d="M261.9981,140.0479 C282.6972,149.0435 307.3567,160.6326 328.5,173 C340.5608,180.0547 353.1638,188.8975 363.833,196.8728 " fill="none" id="ReactiveWebsocketApi-OdinNode" style="stroke: #A80036; stroke-width: 1.0;"/><polygon fill="#A80036" points="367.9737,199.9967,363.1979,191.3832,363.9822,196.9854,358.3799,197.7697,367.9737,199.9967" style="stroke: #A80036; stroke-width: 1.0;"/><!--link EmbeddedClient to OdinNode--><path d="M96.64,199.7289 C116.4913,185.9173 145.9808,168.0836 175,160.5 C204.2402,152.8586 282.2195,151.2769 311,160.5 C332.796,167.4849 353.6133,182.9781 368.4746,196.1239 " fill="none" id="EmbeddedClient-OdinNode" style="stroke: #A80036; stroke-width: 1.0;"/><polygon fill="#A80036" points="372.5042,199.7604,368.5025,190.7611,368.7922,196.4106,363.1428,196.7003,372.5042,199.7604" style="stroke: #A80036; stroke-width: 1.0;"/><!--link OdinNode to BaseData--><path d="M390.5,236.0569 C390.5,251.5126 390.5,273.8647 390.5,290.6731 " fill="none" id="OdinNode-BaseData" style="stroke: #A80036; stroke-width: 1.0;"/><polygon fill="#A80036" points="390.5,295.6977,394.5,286.6977,390.5,290.6977,386.5,286.6977,390.5,295.6977" style="stroke: #A80036; stroke-width: 1.0;"/><!--link DataflowRuntime to BaseData--><path d="M292.8063,236.0284 C309.3309,242.3964 325.3053,249.1679 332.5,254 C347.844,264.3054 362.2991,279.2406 372.9406,291.6317 " fill="none" id="DataflowRuntime-BaseData" style="stroke: #A80036; stroke-width: 1.0;"/><polygon fill="#A80036" points="376.399,295.7261,373.6472,286.2695,373.1726,291.9064,367.5357,291.4318,376.399,295.7261" style="stroke: #A80036; stroke-width: 1.0;"/><!--link DataflowRuntime to DataflowDefinitions--><path d="M241.5595,236.0569 C240.7545,251.5126 239.5904,273.8647 238.7149,290.6731 " fill="none" id="DataflowRuntime-DataflowDefinitions" style="stroke: #A80036; stroke-width: 1.0;"/><polygon fill="#A80036" points="238.4532,295.6977,242.916,286.918,238.7133,290.7045,234.9269,286.5018,238.4532,295.6977" style="stroke: #A80036; stroke-width: 1.0;"/><!--link DataflowDefinitions to BaseData--><path d="M314.5977,314 C324.4445,314 334.2913,314 344.1381,314 " fill="none" id="DataflowDefinitions-BaseData" style="stroke: #A80036; stroke-width: 1.0;"/><polygon fill="#A80036" points="349.2874,314,340.2874,310,344.2874,314,340.2874,318,349.2874,314" style="stroke: #A80036; stroke-width: 1.0;"/><!--
@startuml


package webapi {
    [RestApi]
    [GraphQLApi]
    [ReactiveWebsocketApi]
}

package node {
    [OdinNode]
    [DataflowRuntime]
}


database Datasource {
    [BaseData]
    [DataflowDefinitions]
}

[WebClient] - -> [RestApi]
[WebClient] - -> [GraphQLApi]
[WebClient] - -> [ReactiveWebsocketApi]

[RestApi] - -> [OdinNode]
[GraphQLApi] - -> [OdinNode]
[ReactiveWebsocketApi] - -> [OdinNode]

[EmbeddedClient] -> [OdinNode]

[OdinNode] - -> [BaseData] 
[DataflowRuntime] - -> [BaseData] 
[DataflowRuntime] - -> [DataflowDefinitions] 
[DataflowDefinitions] -> [BaseData]

@enduml

PlantUML version 1.2018.14(Fri Dec 21 17:33:16 CET 2018)
(GPL source distribution)
Java Runtime: Java(TM) SE Runtime Environment
JVM: Java HotSpot(TM) 64-Bit Server VM
Java Version: 9.0.4+11
Operating System: Mac OS X
OS Version: 10.14.5
Default Encoding: UTF-8
Language: en
Country: NL
--></g></svg>