<?xml version="1.0" encoding="UTF-8" standalone="no"?><svg xmlns="http://www.w3.org/2000/svg" xmlns:xlink="http://www.w3.org/1999/xlink" contentScriptType="application/ecmascript" contentStyleType="text/css" height="148px" preserveAspectRatio="none" style="width:404px;height:148px;" version="1.1" viewBox="0 0 404 148" width="404px" zoomAndPan="magnify"><defs><filter height="300%" id="f17h0lky6yfypz" width="300%" x="-1" y="-1"><feGaussianBlur result="blurOut" stdDeviation="2.0"/><feColorMatrix in="blurOut" result="blurOut2" type="matrix" values="0 0 0 0 0 0 0 0 0 0 0 0 0 0 0 0 0 0 .4 0"/><feOffset dx="4.0" dy="4.0" in="blurOut2" result="blurOut3"/><feBlend in="SourceGraphic" in2="blurOut3" mode="normal"/></filter></defs><g><path d="M17,61 C17,58 19,56 22,56 C25,56 27,58 27,61 C27,58 29,56 32,56 C35,56 37,58 37,61 C37,58 39,56 42,56 C45,56 47,58 47,61 C47,58 49,56 52,56 C55,56 57,58 57,61 C57,58 59,56 62,56 C65,56 67,58 67,61 C67,58 69,56 72,56 C75,56 77,58 77,61 C77,58 79,56 82,56 C85,56 87,58 87,61 C87,58 89,56 92,56 C95,56 97,58 97,61 C97,58 99,56 102,56 C105,56 107,58 107,61 C107,58 109,56 112,56 C115,56 117,58 117,61 C117,58 119,56 122,56 C125,56 127,58 127,61 C127,58 129,56 132,56 C135,56 137,58 137,61 C137,58 139,56 142,56 C145,56 147,58 147,61 C147,58 149,56 152,56 C155,56 157,58 157,61 C157,58 159,56 162,56 C165,56 167,58 167,61 C167,58 169,56 172,56 C175,56 177,58 177,61 C177,58 179,56 182,56 C185,56 187,58 187,61 C187,58 189,56 192,56 C195,56 197,58 197,61 C197,58 199,56 202,56 C205,56 207,58 207,61 C207,58 209,56 212,56 C215,56 217,58 217,61 C217,58 219,56 222,56 C225,56 227,58 227,61 C227,58 229,56 232,56 C235,56 237,58 237,61 C237,58 239,56 242,56 C245,56 247,58 247,61 C247,58 249,56 252,56 C255,56 257,58 257,61 C257,58 259,56 262,56 C265,56 267,58 267,61 C267,58 269,56 272,56 C275,56 277,58 277,61 C277,58 279,56 282,56 C285,56 287,58 287,61 C287,58 289,56 292,56 C295,56 297,58 297,61 C297,58 299,56 302,56 C305,56 307,58 307,61 C307,58 309,56 312,56 C315,56 317,58 317,61 C317,58 319,56 322,56 C325,56 327,58 327,61 C327,58 329,56 332,56 C335,56 337,58 337,61 C337,58 339,56 342,56 C345,56 347,58 347,61 C347,58 349,56 352,56 C355,56 357,58 357,61 C357,58 359,56 362,56 C365,56 367,58 367,61 C367,58 369,56 372,56 C375,56 377,58 377,61 C377,58 379,56 382,56 C385,56 387,58 387,61 C390,61 392,63 392,66 C392,69 390,71 387,71 C390,71 392,73 392,76 C392,79 390,81 387,81 C390,81 392,83 392,86 C392,89 390,91 387,91 C390,91 392,93 392,96 C392,99 390,101 387,101 C390,101 392,103 392,106 C392,109 390,111 387,111 C390,111 392,113 392,116 C392,119 390,121 387,121 C390,121 392,123 392,126 C392,129 390,131 387,131 C387,134 384,136 382,136 C379,136 377,134 377,131 C377,134 374,136 372,136 C369,136 367,134 367,131 C367,134 364,136 362,136 C359,136 357,134 357,131 C357,134 354,136 352,136 C349,136 347,134 347,131 C347,134 344,136 342,136 C339,136 337,134 337,131 C337,134 334,136 332,136 C329,136 327,134 327,131 C327,134 324,136 322,136 C319,136 317,134 317,131 C317,134 314,136 312,136 C309,136 307,134 307,131 C307,134 304,136 302,136 C299,136 297,134 297,131 C297,134 294,136 292,136 C289,136 287,134 287,131 C287,134 284,136 282,136 C279,136 277,134 277,131 C277,134 274,136 272,136 C269,136 267,134 267,131 C267,134 264,136 262,136 C259,136 257,134 257,131 C257,134 254,136 252,136 C249,136 247,134 247,131 C247,134 244,136 242,136 C239,136 237,134 237,131 C237,134 234,136 232,136 C229,136 227,134 227,131 C227,134 224,136 222,136 C219,136 217,134 217,131 C217,134 214,136 212,136 C209,136 207,134 207,131 C207,134 204,136 202,136 C199,136 197,134 197,131 C197,134 194,136 192,136 C189,136 187,134 187,131 C187,134 184,136 182,136 C179,136 177,134 177,131 C177,134 174,136 172,136 C169,136 167,134 167,131 C167,134 164,136 162,136 C159,136 157,134 157,131 C157,134 154,136 152,136 C149,136 147,134 147,131 C147,134 144,136 142,136 C139,136 137,134 137,131 C137,134 134,136 132,136 C129,136 127,134 127,131 C127,134 124,136 122,136 C119,136 117,134 117,131 C117,134 114,136 112,136 C109,136 107,134 107,131 C107,134 104,136 102,136 C99,136 97,134 97,131 C97,134 94,136 92,136 C89,136 87,134 87,131 C87,134 84,136 82,136 C79,136 77,134 77,131 C77,134 74,136 72,136 C69,136 67,134 67,131 C67,134 64,136 62,136 C59,136 57,134 57,131 C57,134 54,136 52,136 C49,136 47,134 47,131 C47,134 44,136 42,136 C39,136 37,134 37,131 C37,134 34,136 32,136 C29,136 27,134 27,131 C27,134 24,136 22,136 C19,136 17,134 17,131 C14,131 12,129 12,126 C12,123 14,121 17,121 C14,121 12,119 12,116 C12,113 14,111 17,111 C14,111 12,109 12,106 C12,103 14,101 17,101 C14,101 12,99 12,96 C12,93 14,91 17,91 C14,91 12,89 12,86 C12,83 14,81 17,81 C14,81 12,79 12,76 C12,73 14,71 17,71 C14,71 12,69 12,66 C12,63 14,61 17,61 " fill="#FFFFFF" filter="url(#f17h0lky6yfypz)" style="stroke: #000000; stroke-width: 1.5;"/><!--cluster webapi--><polygon fill="#FFFFFF" filter="url(#f17h0lky6yfypz)" points="114,62,171,62,178,84.4883,376,84.4883,376,133,114,133,114,62" style="stroke: #000000; stroke-width: 1.5;"/><line style="stroke: #000000; stroke-width: 1.5;" x1="114" x2="178" y1="84.4883" y2="84.4883"/><text fill="#000000" font-family="sans-serif" font-size="14" font-weight="bold" lengthAdjust="spacingAndGlyphs" textLength="51" x="118" y="77.5352">webapi</text><!--entity RestApi--><rect fill="#FEFECE" filter="url(#f17h0lky6yfypz)" height="36.4883" style="stroke: #A80036; stroke-width: 1.5;" width="72" x="261" y="89"/><rect fill="#FEFECE" height="5" style="stroke: #A80036; stroke-width: 1.5;" width="10" x="256" y="94"/><rect fill="#FEFECE" height="5" style="stroke: #A80036; stroke-width: 1.5;" width="10" x="256" y="115.4883"/><text fill="#000000" font-family="sans-serif" font-size="14" lengthAdjust="spacingAndGlyphs" textLength="52" x="271" y="112.5352">RestApi</text><!--entity GraphQLApi--><rect fill="#FEFECE" filter="url(#f17h0lky6yfypz)" height="36.4883" style="stroke: #A80036; stroke-width: 1.5;" width="103" x="122.5" y="89"/><rect fill="#FEFECE" height="5" style="stroke: #A80036; stroke-width: 1.5;" width="10" x="117.5" y="94"/><rect fill="#FEFECE" height="5" style="stroke: #A80036; stroke-width: 1.5;" width="10" x="117.5" y="115.4883"/><text fill="#000000" font-family="sans-serif" font-size="14" lengthAdjust="spacingAndGlyphs" textLength="83" x="132.5" y="112.5352">GraphQLApi</text><!--entity node--><polygon fill="#FFFFFF" filter="url(#f17h0lky6yfypz)" points="22.5,87.5,63.5,87.5,70.5,109.9883,87.5,109.9883,87.5,126.9883,22.5,126.9883,22.5,87.5" style="stroke: #000000; stroke-width: 1.5;"/><line style="stroke: #000000; stroke-width: 1.5;" x1="22.5" x2="70.5" y1="109.9883" y2="109.9883"/><text fill="#000000" font-family="sans-serif" font-size="14" lengthAdjust="spacingAndGlyphs" textLength="35" x="26.5" y="104.0352">node</text><!--link webapi to node--><path d="M360.5484,61.629 C360.502,61.4896 360.4553,61.3502 360.4083,61.2108 C360.3142,60.932 360.2191,60.6532 360.1227,60.3746 C359.7372,59.2601 359.3329,58.1475 358.9088,57.0394 C357.2124,52.6072 355.1995,48.2489 352.8109,44.1444 C348.0338,35.9353 341.7544,28.7411 333.5,24 C293.0334,0.7572 165.7136,4.1056 123.5,24 C97.8891,36.0699 78.5962,62.9338 67.1156,82.8478 " fill="none" id="webapi-node" style="stroke: #A80036; stroke-width: 1.0;"/><polygon fill="#A80036" points="64.6455,87.2374,72.5451,81.3556,67.0975,82.8799,65.5732,77.4323,64.6455,87.2374" style="stroke: #A80036; stroke-width: 1.0;"/><!--
@startuml


cloud {
    package webapi {
        [RestApi]
        [GraphQLApi]
    }

    package node {

    }
}
webapi -> node

@enduml

PlantUML version 1.2018.14(Fri Dec 21 17:33:16 CET 2018)
(GPL source distribution)
Java Runtime: Java(TM) SE Runtime Environment
JVM: Java HotSpot(TM) 64-Bit Server VM
Java Version: 9.0.4+11
Operating System: Mac OS X
OS Version: 10.14.5
Default Encoding: UTF-8
Language: en
Country: NL
--></g></svg>