<?xml version="1.0" encoding="UTF-8" standalone="no"?><svg xmlns="http://www.w3.org/2000/svg" xmlns:xlink="http://www.w3.org/1999/xlink" contentScriptType="application/ecmascript" contentStyleType="text/css" height="146px" preserveAspectRatio="none" style="width:395px;height:146px;" version="1.1" viewBox="0 0 395 146" width="395px" zoomAndPan="magnify"><defs><filter height="300%" id="f43yphmw6shac" width="300%" x="-1" y="-1"><feGaussianBlur result="blurOut" stdDeviation="2.0"/><feColorMatrix in="blurOut" result="blurOut2" type="matrix" values="0 0 0 0 0 0 0 0 0 0 0 0 0 0 0 0 0 0 .4 0"/><feOffset dx="4.0" dy="4.0" in="blurOut2" result="blurOut3"/><feBlend in="SourceGraphic" in2="blurOut3" mode="normal"/></filter></defs><g><path d="M17,59 C17,56 19,54 22,54 C25,54 27,56 27,59 C27,56 29,54 32,54 C35,54 37,56 37,59 C37,56 39,54 42,54 C45,54 47,56 47,59 C47,56 49,54 52,54 C55,54 57,56 57,59 C57,56 59,54 62,54 C65,54 67,56 67,59 C67,56 69,54 72,54 C75,54 77,56 77,59 C77,56 79,54 82,54 C85,54 87,56 87,59 C87,56 89,54 92,54 C95,54 97,56 97,59 C97,56 99,54 102,54 C105,54 107,56 107,59 C107,56 109,54 112,54 C115,54 117,56 117,59 C117,56 119,54 122,54 C125,54 127,56 127,59 C127,56 129,54 132,54 C135,54 137,56 137,59 C137,56 139,54 142,54 C145,54 147,56 147,59 C147,56 149,54 152,54 C155,54 157,56 157,59 C157,56 159,54 162,54 C165,54 167,56 167,59 C167,56 169,54 172,54 C175,54 177,56 177,59 C177,56 179,54 182,54 C185,54 187,56 187,59 C187,56 189,54 192,54 C195,54 197,56 197,59 C197,56 199,54 202,54 C205,54 207,56 207,59 C207,56 209,54 212,54 C215,54 217,56 217,59 C217,56 219,54 222,54 C225,54 227,56 227,59 C227,56 229,54 232,54 C235,54 237,56 237,59 C237,56 239,54 242,54 C245,54 247,56 247,59 C247,56 249,54 252,54 C255,54 257,56 257,59 C257,56 259,54 262,54 C265,54 267,56 267,59 C267,56 269,54 272,54 C275,54 277,56 277,59 C277,56 279,54 282,54 C285,54 287,56 287,59 C287,56 289,54 292,54 C295,54 297,56 297,59 C297,56 299,54 302,54 C305,54 307,56 307,59 C307,56 309,54 312,54 C315,54 317,56 317,59 C317,56 319,54 322,54 C325,54 327,56 327,59 C327,56 329,54 332,54 C335,54 337,56 337,59 C337,56 339,54 342,54 C345,54 347,56 347,59 C347,56 349,54 352,54 C355,54 357,56 357,59 C357,56 359,54 362,54 C365,54 367,56 367,59 C367,56 369,54 372,54 C375,54 377,56 377,59 C380,59 382,61 382,64 C382,67 380,69 377,69 C380,69 382,71 382,74 C382,77 380,79 377,79 C380,79 382,81 382,84 C382,87 380,89 377,89 C380,89 382,91 382,94 C382,97 380,99 377,99 C380,99 382,101 382,104 C382,107 380,109 377,109 C380,109 382,111 382,114 C382,117 380,119 377,119 C380,119 382,121 382,124 C382,127 380,129 377,129 C377,132 374,134 372,134 C369,134 367,132 367,129 C367,132 364,134 362,134 C359,134 357,132 357,129 C357,132 354,134 352,134 C349,134 347,132 347,129 C347,132 344,134 342,134 C339,134 337,132 337,129 C337,132 334,134 332,134 C329,134 327,132 327,129 C327,132 324,134 322,134 C319,134 317,132 317,129 C317,132 314,134 312,134 C309,134 307,132 307,129 C307,132 304,134 302,134 C299,134 297,132 297,129 C297,132 294,134 292,134 C289,134 287,132 287,129 C287,132 284,134 282,134 C279,134 277,132 277,129 C277,132 274,134 272,134 C269,134 267,132 267,129 C267,132 264,134 262,134 C259,134 257,132 257,129 C257,132 254,134 252,134 C249,134 247,132 247,129 C247,132 244,134 242,134 C239,134 237,132 237,129 C237,132 234,134 232,134 C229,134 227,132 227,129 C227,132 224,134 222,134 C219,134 217,132 217,129 C217,132 214,134 212,134 C209,134 207,132 207,129 C207,132 204,134 202,134 C199,134 197,132 197,129 C197,132 194,134 192,134 C189,134 187,132 187,129 C187,132 184,134 182,134 C179,134 177,132 177,129 C177,132 174,134 172,134 C169,134 167,132 167,129 C167,132 164,134 162,134 C159,134 157,132 157,129 C157,132 154,134 152,134 C149,134 147,132 147,129 C147,132 144,134 142,134 C139,134 137,132 137,129 C137,132 134,134 132,134 C129,134 127,132 127,129 C127,132 124,134 122,134 C119,134 117,132 117,129 C117,132 114,134 112,134 C109,134 107,132 107,129 C107,132 104,134 102,134 C99,134 97,132 97,129 C97,132 94,134 92,134 C89,134 87,132 87,129 C87,132 84,134 82,134 C79,134 77,132 77,129 C77,132 74,134 72,134 C69,134 67,132 67,129 C67,132 64,134 62,134 C59,134 57,132 57,129 C57,132 54,134 52,134 C49,134 47,132 47,129 C47,132 44,134 42,134 C39,134 37,132 37,129 C37,132 34,134 32,134 C29,134 27,132 27,129 C27,132 24,134 22,134 C19,134 17,132 17,129 C14,129 12,127 12,124 C12,121 14,119 17,119 C14,119 12,117 12,114 C12,111 14,109 17,109 C14,109 12,107 12,104 C12,101 14,99 17,99 C14,99 12,97 12,94 C12,91 14,89 17,89 C14,89 12,87 12,84 C12,81 14,79 17,79 C14,79 12,77 12,74 C12,71 14,69 17,69 C14,69 12,67 12,64 C12,61 14,59 17,59 " fill="#FFFFFF" filter="url(#f43yphmw6shac)" style="stroke: #000000; stroke-width: 1.5;"/><!--cluster webapi--><polygon fill="#FFFFFF" filter="url(#f43yphmw6shac)" points="146,60,203,60,210,82.4883,373,82.4883,373,131,146,131,146,60" style="stroke: #000000; stroke-width: 1.5;"/><line style="stroke: #000000; stroke-width: 1.5;" x1="146" x2="210" y1="82.4883" y2="82.4883"/><text fill="#000000" font-family="sans-serif" font-size="14" font-weight="bold" lengthAdjust="spacingAndGlyphs" textLength="51" x="150" y="75.5352">webapi</text><!--cluster node--><polygon fill="#FFFFFF" filter="url(#f43yphmw6shac)" points="22,60,63,60,70,82.4883,128,82.4883,128,131,22,131,22,60" style="stroke: #000000; stroke-width: 1.5;"/><line style="stroke: #000000; stroke-width: 1.5;" x1="22" x2="70" y1="82.4883" y2="82.4883"/><text fill="#000000" font-family="sans-serif" font-size="14" font-weight="bold" lengthAdjust="spacingAndGlyphs" textLength="35" x="26" y="75.5352">node</text><!--entity RestApi--><rect fill="#FEFECE" filter="url(#f43yphmw6shac)" height="36.4883" style="stroke: #A80036; stroke-width: 1.5;" width="72" x="293" y="87"/><rect fill="#FEFECE" height="5" style="stroke: #A80036; stroke-width: 1.5;" width="10" x="288" y="92"/><rect fill="#FEFECE" height="5" style="stroke: #A80036; stroke-width: 1.5;" width="10" x="288" y="113.4883"/><text fill="#000000" font-family="sans-serif" font-size="14" lengthAdjust="spacingAndGlyphs" textLength="52" x="303" y="110.5352">RestApi</text><!--entity GraphQLApi--><rect fill="#FEFECE" filter="url(#f43yphmw6shac)" height="36.4883" style="stroke: #A80036; stroke-width: 1.5;" width="103" x="154.5" y="87"/><rect fill="#FEFECE" height="5" style="stroke: #A80036; stroke-width: 1.5;" width="10" x="149.5" y="92"/><rect fill="#FEFECE" height="5" style="stroke: #A80036; stroke-width: 1.5;" width="10" x="149.5" y="113.4883"/><text fill="#000000" font-family="sans-serif" font-size="14" lengthAdjust="spacingAndGlyphs" textLength="83" x="164.5" y="110.5352">GraphQLApi</text><!--entity OdinNode--><rect fill="#FEFECE" filter="url(#f43yphmw6shac)" height="36.4883" style="stroke: #A80036; stroke-width: 1.5;" width="89" x="30.5" y="87"/><rect fill="#FEFECE" height="5" style="stroke: #A80036; stroke-width: 1.5;" width="10" x="25.5" y="92"/><rect fill="#FEFECE" height="5" style="stroke: #A80036; stroke-width: 1.5;" width="10" x="25.5" y="113.4883"/><text fill="#000000" font-family="sans-serif" font-size="14" lengthAdjust="spacingAndGlyphs" textLength="69" x="40.5" y="110.5352">OdinNode</text><!--link RestApi to OdinNode--><path d="M319.5523,86.6793 C308.0024,66.5242 286.3725,35.2362 257.5,22 C216.2907,3.1081 197.2487,4.332 155.5,22 C126.505,34.2707 102.8218,62.6609 88.8254,82.8128 " fill="none" id="RestApi-OdinNode" style="stroke: #A80036; stroke-width: 1.0;"/><polygon fill="#A80036" points="85.9874,86.9791,94.3602,81.793,88.8024,82.8468,87.7486,77.289,85.9874,86.9791" style="stroke: #A80036; stroke-width: 1.0;"/><!--link GraphQLApi to OdinNode--><path d="M154.3144,105 C144.4377,105 134.5611,105 124.6844,105 " fill="none" id="GraphQLApi-OdinNode" style="stroke: #A80036; stroke-width: 1.0;"/><polygon fill="#A80036" points="119.5195,105,128.5195,109,124.5195,105,128.5195,101,119.5195,105" style="stroke: #A80036; stroke-width: 1.0;"/><!--
@startuml


cloud {
    package webapi {
        [RestApi]
        [GraphQLApi]
    }

    package node {
        [OdinNode]
    }
}

[RestApi] -> [OdinNode]
[GraphQLApi] -> [OdinNode]


@enduml

PlantUML version 1.2018.14(Fri Dec 21 17:33:16 CET 2018)
(GPL source distribution)
Java Runtime: Java(TM) SE Runtime Environment
JVM: Java HotSpot(TM) 64-Bit Server VM
Java Version: 9.0.4+11
Operating System: Mac OS X
OS Version: 10.14.5
Default Encoding: UTF-8
Language: en
Country: NL
--></g></svg>